# xmcd
#
# Track frame offsets:
#	150
#	22889
#	34063
#	46929
#	59578
#	70620
#	89407
#	101789
#	115216
#	126566
#
# Disc length: 1868 seconds
#
# Revision: 0
# Processed by: cddbd v1.5.2PL0 Copyright (c) Steve Scherf et al.
# Submitted via: dBpowerAMP V4.0
#
DISCID=88074a0a
DTITLE=Various Artist - Ultimate Blues Disc 1
DYEAR=2006
DGENRE=Blues
TTITLE0=B.B. King - Everyday I Have the Blues
TTITLE1=John Lee Hooker - Boom Boom
TTITLE2=Muddy Waters - Forty Days and Forty Nights
TTITLE3=Jimmy Reed - Bright Lights, Big City
TTITLE4=Robert Johnson - Love in Vain
TTITLE5=Mississippi John Hurt - Stagger Lee (live)
TTITLE6=Big Bill Broonzy - Black, White And Brown (live)
TTITLE7=Bessie Smith - Nobody Knows When You're Down and Out
TTITLE8=Sonny Boy Williamson - Your Funeral and My Trial
TTITLE9=Big Joe Turner - Shake, Rattle and Roll
EXTD=
EXTT0=
EXTT1=
EXTT2=
EXTT3=
EXTT4=
EXTT5=
EXTT6=
EXTT7=
EXTT8=
EXTT9=
PLAYORDER=
